<svg xmlns="http://www.w3.org/2000/svg" id="Layer_1" viewBox="0 0 396 175">
  <style>.st0{fill:#ededed}.st1{fill:none;stroke:#ededed;stroke-width:3;stroke-miterlimit:10}</style>
    <path d="M393 3v169H3V3h390m3-3H0v175h396V0z" class="st0"/>
    <path d="M29.7 43.2c0 1.1.2 2.1.5 3 1 2.8 4.1 3.3 6.7 3.3 2.3 0 5.8-.8 5.8-4.2 0-2.3-2-3-9.9-5.3-7.3-2.1-15.5-4-15.5-13.3 0-10.6 9.1-15.2 18.5-15.2 10 0 18.8 3.9 19.1 15H41.7c.3-1.7-.4-2.9-1.7-3.7-1.2-.8-2.7-1.2-4.2-1.2-1.9 0-5.1.5-5.1 3.1.2 3.2 6.9 4.1 13.3 5.8 6.5 2 13 4.9 13 13.4 0 12-11 15.8-21.2 15.8-5.1 0-20.2-1.9-20.2-16.5h14.1zM72.1 24.5H59.2V12.8H99v11.8H86.2v34.1H72.1V24.5zM112.2 12.8H126l16.7 45.9h-14.6l-1.9-6.6h-14.6l-2.1 6.6H95.3l16.9-45.9zm11.1 29.4l-4.1-14.1h-.1l-4.4 14.1h8.6zM145.9 12.8h14.5l13.4 24.5h.1V12.8h13.4v45.9h-13.7l-14.1-25h-.1v25H146V12.8zM194.6 12.8h23.2c15.2 0 20.7 11.3 20.7 22.9 0 14.1-7.5 23-23.4 23h-20.4V12.8zm14.1 34.1h5.5c8.7 0 10.1-7.1 10.1-11.4 0-2.9-.8-10.9-11.1-10.9h-4.5v22.3zM257.3 12.8h13.8l16.7 45.9h-14.6l-1.9-6.6h-14.6l-2.1 6.6h-14.2l16.9-45.9zm11.1 29.4l-4.1-14.1h-.1l-4.4 14.1h8.6zM290.9 12.8h26.9c8 0 15 4.4 15 13.1 0 4.8-2.2 9.8-6.9 11.5 3.9 1.5 6.2 5.7 6.7 11.4.2 2.2.2 7.8 1.5 9.8H320c-.7-2.3-1-4.7-1.2-7.1-.3-4.4-.8-8.9-6.4-8.9h-7.5v16h-14.1V12.8zm14.2 20h7.4c2.6 0 6.2-.4 6.2-4.6 0-2.9-1.6-4.6-7-4.6h-6.6v9.2zM338.5 12.8h23.2c15.2 0 20.7 11.3 20.7 22.9 0 14.1-7.5 23-23.4 23h-20.4V12.8zm14.2 34.1h5.5c8.7 0 10.1-7.1 10.1-11.4 0-2.9-.8-10.9-11.1-10.9h-4.5v22.3z" class="st0"/>
    <path d="M80.4 100c-1-5.9-5.4-9.9-18.5-9.9-9.6 0-14.8 2.8-14.8 8.4 0 2.8 2.2 4.5 6.3 5.3 7.1 1.3 29.1 4.5 37.4 5.9 15.9 2.8 25.5 9.3 25.5 24.3 0 28.9-37.6 29.2-49.3 29.2-28.9 0-50-5.1-51.5-28.9h33.7c.6 6.5 4.4 10.5 19.1 10.5 7.2 0 14.9-1.7 14.9-9 0-4.4-3.6-6.1-13.5-7.7l-28.5-4.3c-17.6-2.5-24.4-11.4-24.4-24.2 0-11.1 6.9-27.1 44.4-27.1 31.1 0 49.5 7.5 51.4 27.6H80.4zM127.7 75h63.1c23.2 0 31.5 12.2 31.5 28.5 0 14.1-7.2 28.5-30.1 28.5h-36v28.5h-28.5V75zm28.4 39.3h25.4c8 0 11.4-3.1 11.4-10.8s-3.3-10.8-11.4-10.8h-25.4v21.6zM234.4 75h28.5v85.4h-28.5V75zM280.4 75h32.8l39.6 53.5h.2V75h27.5v85.4H349l-40.9-53.9h-.2v53.9h-27.5V75z" class="st1"/>
</svg>
